<svg width="16" height="16" viewBox="0 0 16 16" fill="none" xmlns="http://www.w3.org/2000/svg">
<path d="M14.5455 12.3636V13.0909H1.45455V12.3636L2.90909 10.9091V6.54545C2.90909 4.29091 4.38545 2.30545 6.54545 1.66545C6.54545 1.59273 6.54545 1.52727 6.54545 1.45455C6.54545 1.06878 6.6987 0.698807 6.97148 0.426026C7.24426 0.153246 7.61423 0 8 0C8.38577 0 8.75574 0.153246 9.02852 0.426026C9.3013 0.698807 9.45455 1.06878 9.45455 1.45455C9.45455 1.52727 9.45455 1.59273 9.45455 1.66545C11.6145 2.30545 13.0909 4.29091 13.0909 6.54545V10.9091L14.5455 12.3636ZM9.45455 13.8182C9.45455 14.204 9.3013 14.5739 9.02852 14.8467C8.75574 15.1195 8.38577 15.2727 8 15.2727C7.61423 15.2727 7.24426 15.1195 6.97148 14.8467C6.6987 14.5739 6.54545 14.204 6.54545 13.8182H9.45455ZM13.6364 0.865455L12.6036 1.89818C13.8473 3.12727 14.5455 4.8 14.5455 6.54545H16C16 4.41455 15.1564 2.36364 13.6364 0.865455ZM0 6.54545H1.45455C1.45455 4.8 2.15273 3.12727 3.39636 1.89818L2.36364 0.865455C0.843636 2.36364 0 4.41455 0 6.54545Z" fill="white"/>
</svg>
