<svg width="89" height="75" viewBox="0 0 89 75" fill="none" xmlns="http://www.w3.org/2000/svg">
<g clip-path="url(#clip0_252_2502)">
<path d="M79.5371 27.6279H79.5102L64.0645 34.2131L42.9316 43.2232C42.8491 43.2579 42.7604 43.276 42.6709 43.2764C42.5813 43.2769 42.4925 43.2597 42.4095 43.2259L20.6066 34.1943L4.78149 27.6386L4.75732 27.6279H4.73039C4.48069 27.6281 4.2413 27.7273 4.06473 27.9036C3.88817 28.0799 3.78885 28.3189 3.78857 28.5682V69.407C3.78885 69.6564 3.88817 69.8954 4.06473 70.0717C4.2413 70.248 4.48069 70.3471 4.73039 70.3474H79.5371C79.7868 70.3471 80.0262 70.248 80.2028 70.0717C80.3794 69.8954 80.4787 69.6564 80.4789 69.407V28.5682C80.4787 28.3189 80.3794 28.0799 80.2028 27.9036C80.0262 27.7273 79.7868 27.6281 79.5371 27.6279Z" fill="white"/>
<path d="M79.6047 27.8965C79.5772 27.8965 79.5504 27.8881 79.5279 27.8724L42.3184 1.99837C42.2052 1.92 42.0706 1.87811 41.9328 1.87835C41.795 1.87858 41.6606 1.92092 41.5476 1.99968L4.60621 27.8721C4.57698 27.8924 4.54089 27.9004 4.50583 27.8941C4.47077 27.8879 4.43961 27.8681 4.41916 27.839C4.39872 27.8099 4.39067 27.7739 4.39676 27.7389C4.40285 27.7038 4.42258 27.6726 4.45166 27.6521L41.3931 1.77969C41.5513 1.66944 41.7395 1.61018 41.9324 1.60986C42.1253 1.60955 42.3136 1.66819 42.4722 1.77792L79.6816 27.6519C79.7052 27.6682 79.7228 27.6916 79.7321 27.7187C79.7413 27.7458 79.7417 27.7751 79.7331 27.8024C79.7245 27.8297 79.7074 27.8535 79.6843 27.8704C79.6612 27.8874 79.6333 27.8965 79.6047 27.8965H79.6047Z" fill="black"/>
<path d="M6.71692 28.8139L41.9691 2.72772L77.4889 30.67L43.7854 50.6191L25.4874 46.4548L6.71692 28.8139Z" fill="#B1DDC4"/>
<path d="M27.0316 62.9411H9.61611C9.40032 62.9415 9.19324 62.8562 9.04043 62.704C8.88761 62.5519 8.80159 62.3454 8.80127 62.1299C8.80095 61.9145 8.88636 61.7077 9.03873 61.5551C9.19109 61.4026 9.39792 61.3167 9.61371 61.3163H27.0316C27.2474 61.316 27.4545 61.4013 27.6073 61.5534C27.7601 61.7056 27.8461 61.9121 27.8464 62.1275C27.8468 62.343 27.7613 62.5498 27.609 62.7023C27.4566 62.8549 27.2498 62.9408 27.034 62.9411H27.0316Z" fill="#55AE3A"/>
<path d="M15.8638 59.4484H9.61555C9.39985 59.4486 9.19292 59.3632 9.04023 59.2111C8.88754 59.059 8.80159 58.8526 8.80127 58.6372C8.80095 58.4218 8.88629 58.2152 9.03853 58.0626C9.19077 57.91 9.39745 57.8241 9.61315 57.8236H15.8638C15.9707 57.8234 16.0766 57.8442 16.1755 57.8848C16.2743 57.9255 16.3641 57.9852 16.4399 58.0605C16.5156 58.1358 16.5757 58.2253 16.6168 58.3239C16.6579 58.4224 16.6791 58.5281 16.6792 58.6348C16.6794 58.7415 16.6585 58.8472 16.6177 58.9459C16.5769 59.0446 16.5171 59.1342 16.4416 59.2098C16.3661 59.2853 16.2764 59.3453 16.1777 59.3862C16.079 59.4272 15.9731 59.4483 15.8662 59.4484H15.8638Z" fill="#55AE3A"/>
<path d="M42.4651 43.3434C42.3327 43.3435 42.2016 43.3179 42.079 43.2679L20.3379 34.2607V6.06659C20.3382 5.81727 20.4375 5.57826 20.6141 5.40197C20.7906 5.22568 21.03 5.12651 21.2797 5.12622H62.9885C63.2382 5.12651 63.4776 5.22568 63.6541 5.40197C63.8307 5.57826 63.93 5.81727 63.9303 6.06659V34.2804L63.8894 34.2978L42.8628 43.2635C42.7369 43.3163 42.6016 43.3435 42.4651 43.3434Z" fill="white"/>
<path d="M42.464 43.4104C42.3228 43.4105 42.183 43.3832 42.0523 43.3299L20.2695 34.3054V6.06643C20.2698 5.79931 20.3762 5.54322 20.5654 5.35433C20.7546 5.16545 21.0111 5.0592 21.2786 5.0589H62.9874C63.255 5.0592 63.5114 5.16545 63.7006 5.35433C63.8898 5.54322 63.9962 5.79931 63.9965 6.06643V34.3246L42.8881 43.3251C42.7539 43.3815 42.6097 43.4105 42.464 43.4104ZM20.5386 34.1259L42.155 43.0815C42.3566 43.1632 42.5824 43.1619 42.783 43.0778L63.7274 34.1472V6.06643C63.7272 5.87055 63.6491 5.68275 63.5104 5.54424C63.3717 5.40573 63.1836 5.32782 62.9874 5.32759H21.2786C21.0824 5.32782 20.8944 5.40573 20.7556 5.54424C20.6169 5.68275 20.5389 5.87055 20.5386 6.06643L20.5386 34.1259Z" fill="black"/>
<path d="M79.335 27.6279H79.308L63.8624 34.2131L42.7295 43.2232C42.6469 43.2579 42.5583 43.276 42.4687 43.2764C42.3791 43.2769 42.2903 43.2597 42.2074 43.2259L20.4045 34.1943L4.57936 27.6386L4.55517 27.6279H4.52823C4.27853 27.6281 4.03915 27.7273 3.86258 27.9036C3.68602 28.0799 3.5867 28.3189 3.58643 28.5682V69.407C3.5867 69.6564 3.68602 69.8954 3.86258 70.0717C4.03915 70.248 4.27853 70.3471 4.52823 70.3474H79.335C79.5847 70.3471 79.8241 70.248 80.0006 70.0717C80.1772 69.8954 80.2765 69.6564 80.2768 69.407V28.5682C80.2765 28.3189 80.1772 28.0799 80.0006 27.9036C79.8241 27.7273 79.5847 27.6281 79.335 27.6279ZM80.0077 69.407C80.0076 69.5852 79.9367 69.756 79.8106 69.8819C79.6845 70.0079 79.5134 70.0787 79.335 70.0787H4.52823C4.34984 70.0787 4.17877 70.0079 4.05262 69.8819C3.92648 69.756 3.85559 69.5852 3.85552 69.407V28.5682C3.85576 28.3945 3.92323 28.2277 4.04384 28.1025C4.16445 27.9773 4.32885 27.9035 4.50268 27.8965L20.4045 34.4845L42.1039 43.4744C42.3388 43.5698 42.602 43.5684 42.8358 43.4704L63.8624 34.5046L79.3619 27.8965C79.5354 27.904 79.6994 27.978 79.8197 28.1031C79.94 28.2282 80.0073 28.3948 80.0077 28.5682V69.407Z" fill="black"/>
<path d="M39.0801 15.6652H24.2802C23.995 15.6648 23.7216 15.5513 23.5201 15.3498C23.3185 15.1483 23.2053 14.8752 23.2053 14.5905C23.2053 14.3057 23.3185 14.0326 23.5201 13.8311C23.7216 13.6296 23.995 13.5162 24.2802 13.5157H39.0801C39.3653 13.5162 39.6387 13.6296 39.8402 13.8311C40.0417 14.0326 40.1549 14.3057 40.1549 14.5905C40.1549 14.8752 40.0417 15.1483 39.8402 15.3498C39.6387 15.5513 39.3653 15.6648 39.0801 15.6652Z" fill="#55AE3A"/>
<path d="M31.4111 11.0983H24.2802C23.9947 11.0983 23.721 10.985 23.5191 10.7835C23.3173 10.5819 23.2039 10.3086 23.2039 10.0236C23.2039 9.73853 23.3173 9.46517 23.5191 9.26362C23.721 9.06208 23.9947 8.94885 24.2802 8.94885H31.4111C31.6965 8.94885 31.9703 9.06208 32.1722 9.26362C32.374 9.46517 32.4874 9.73853 32.4874 10.0236C32.4874 10.3086 32.374 10.5819 32.1722 10.7835C31.9703 10.985 31.6965 11.0983 31.4111 11.0983Z" fill="#55AE3A"/>
<path d="M53.2023 26.4125H30.5989C30.3137 26.4121 30.0403 26.2987 29.8388 26.0972C29.6372 25.8957 29.524 25.6226 29.524 25.3378C29.524 25.0531 29.6372 24.7799 29.8388 24.5784C30.0403 24.3769 30.3137 24.2635 30.5989 24.2631H53.2023C53.4875 24.2635 53.7609 24.3769 53.9624 24.5784C54.164 24.7799 54.2772 25.0531 54.2772 25.3378C54.2772 25.6226 54.164 25.8957 53.9624 26.0972C53.7609 26.2987 53.4875 26.4121 53.2023 26.4125Z" fill="#E5E5E5"/>
<path d="M53.2024 31.3834H30.5989C30.3135 31.3834 30.0397 31.2701 29.8378 31.0686C29.636 30.867 29.5226 30.5937 29.5226 30.3087C29.5226 30.0236 29.636 29.7503 29.8378 29.5487C30.0397 29.3472 30.3135 29.2339 30.5989 29.2339H53.2024C53.4879 29.2339 53.7617 29.3472 53.9635 29.5487C54.1654 29.7503 54.2788 30.0236 54.2788 30.3087C54.2788 30.5937 54.1654 30.867 53.9635 31.0686C53.7617 31.2701 53.4879 31.3834 53.2024 31.3834Z" fill="#E5E5E5"/>
<path d="M78.9176 38.2367C84.5701 38.2367 89.1524 33.6615 89.1524 28.0176C89.1524 22.3738 84.5701 17.7986 78.9176 17.7986C73.2651 17.7986 68.6829 22.3738 68.6829 28.0176C68.6829 33.6615 73.2651 38.2367 78.9176 38.2367Z" fill="#55AE3A"/>
<path d="M77.9431 32.3315L74.8799 28.3986L76.6612 27.0152L78.1116 28.8773L83.0115 23.7127L84.65 25.2627L77.9431 32.3315Z" fill="white"/>
</g>
<defs>
<clipPath id="clip0_252_2502">
<rect width="89" height="75" fill="white"/>
</clipPath>
</defs>
</svg>
