<svg width="20" height="20" viewBox="0 0 20 20" fill="none" xmlns="http://www.w3.org/2000/svg">
<path d="M16.5455 14.3636V15.0909H3.45455V14.3636L4.90909 12.9091V8.54545C4.90909 6.29091 6.38545 4.30545 8.54545 3.66545C8.54545 3.59273 8.54545 3.52727 8.54545 3.45455C8.54545 3.06878 8.6987 2.69881 8.97148 2.42603C9.24426 2.15325 9.61423 2 10 2C10.3858 2 10.7557 2.15325 11.0285 2.42603C11.3013 2.69881 11.4545 3.06878 11.4545 3.45455C11.4545 3.52727 11.4545 3.59273 11.4545 3.66545C13.6145 4.30545 15.0909 6.29091 15.0909 8.54545V12.9091L16.5455 14.3636ZM11.4545 15.8182C11.4545 16.204 11.3013 16.5739 11.0285 16.8467C10.7557 17.1195 10.3858 17.2727 10 17.2727C9.61423 17.2727 9.24426 17.1195 8.97148 16.8467C8.6987 16.5739 8.54545 16.204 8.54545 15.8182H11.4545ZM15.6364 2.86545L14.6036 3.89818C15.8473 5.12727 16.5455 6.8 16.5455 8.54545H18C18 6.41455 17.1564 4.36364 15.6364 2.86545ZM2 8.54545H3.45455C3.45455 6.8 4.15273 5.12727 5.39636 3.89818L4.36364 2.86545C2.84364 4.36364 2 6.41455 2 8.54545Z" fill="black"/>
</svg>
