<svg width="9" height="7" viewBox="0 0 9 7" fill="none" xmlns="http://www.w3.org/2000/svg">
<path d="M2.88565 4.9843L7.64798 0.221973C7.79596 0.0739907 7.9843 0 8.213 0C8.4417 0 8.63004 0.0739907 8.77803 0.221973C8.92601 0.369955 9 0.558295 9 0.786995C9 1.01569 8.92601 1.20404 8.77803 1.35202L3.45067 6.67937C3.28924 6.84081 3.1009 6.92152 2.88565 6.92152C2.6704 6.92152 2.48206 6.84081 2.32063 6.67937L0.221973 4.58072C0.0739907 4.43274 0 4.24439 0 4.01569C0 3.78699 0.0739907 3.59865 0.221973 3.45067C0.369955 3.30269 0.558296 3.2287 0.786995 3.2287C1.01569 3.2287 1.20404 3.30269 1.35202 3.45067L2.88565 4.9843Z" fill="white"/>
</svg>
